<svg aria-roledescription="er" role="graphics-document document" viewBox="0 0 543.8087158203125 1085" style="max-width: 543.809px; background-color: white;" xmlns:xlink="http://www.w3.org/1999/xlink" xmlns="http://www.w3.org/2000/svg" width="100%" id="my-svg"><style>#my-svg{font-family:"trebuchet ms",verdana,arial,sans-serif;font-size:16px;fill:#000000;}#my-svg .error-icon{fill:#552222;}#my-svg .error-text{fill:#552222;stroke:#552222;}#my-svg .edge-thickness-normal{stroke-width:2px;}#my-svg .edge-thickness-thick{stroke-width:3.5px;}#my-svg .edge-pattern-solid{stroke-dasharray:0;}#my-svg .edge-pattern-dashed{stroke-dasharray:3;}#my-svg .edge-pattern-dotted{stroke-dasharray:2;}#my-svg .marker{fill:#000000;stroke:#000000;}#my-svg .marker.cross{stroke:#000000;}#my-svg svg{font-family:"trebuchet ms",verdana,arial,sans-serif;font-size:16px;}#my-svg .entityBox{fill:#cde498;stroke:#13540c;}#my-svg .attributeBoxOdd{fill:#ffffff;stroke:#13540c;}#my-svg .attributeBoxEven{fill:#f2f2f2;stroke:#13540c;}#my-svg .relationshipLabelBox{fill:hsl(78.1578947368, 58.4615384615%, 84.5098039216%);opacity:0.7;background-color:hsl(78.1578947368, 58.4615384615%, 84.5098039216%);}#my-svg .relationshipLabelBox rect{opacity:0.5;}#my-svg .relationshipLine{stroke:#000000;}#my-svg .entityTitleText{text-anchor:middle;font-size:18px;fill:#000000;}#my-svg #MD_PARENT_START{fill:#f5f5f5!important;stroke:#000000!important;stroke-width:1;}#my-svg #MD_PARENT_END{fill:#f5f5f5!important;stroke:#000000!important;stroke-width:1;}#my-svg :root{--mermaid-font-family:"trebuchet ms",verdana,arial,sans-serif;}</style><g/><defs><marker orient="auto" markerHeight="240" markerWidth="190" refY="7" refX="0" id="MD_PARENT_START"><path d="M 18,7 L9,13 L1,7 L9,1 Z"/></marker></defs><defs><marker orient="auto" markerHeight="28" markerWidth="20" refY="7" refX="19" id="MD_PARENT_END"><path d="M 18,7 L9,13 L1,7 L9,1 Z"/></marker></defs><defs><marker orient="auto" markerHeight="18" markerWidth="18" refY="9" refX="0" id="ONLY_ONE_START"><path d="M9,0 L9,18 M15,0 L15,18" fill="none" stroke="gray"/></marker></defs><defs><marker orient="auto" markerHeight="18" markerWidth="18" refY="9" refX="18" id="ONLY_ONE_END"><path d="M3,0 L3,18 M9,0 L9,18" fill="none" stroke="gray"/></marker></defs><defs><marker orient="auto" markerHeight="18" markerWidth="30" refY="9" refX="0" id="ZERO_OR_ONE_START"><circle r="6" cy="9" cx="21" fill="white" stroke="gray"/><path d="M9,0 L9,18" fill="none" stroke="gray"/></marker></defs><defs><marker orient="auto" markerHeight="18" markerWidth="30" refY="9" refX="30" id="ZERO_OR_ONE_END"><circle r="6" cy="9" cx="9" fill="white" stroke="gray"/><path d="M21,0 L21,18" fill="none" stroke="gray"/></marker></defs><defs><marker orient="auto" markerHeight="36" markerWidth="45" refY="18" refX="18" id="ONE_OR_MORE_START"><path d="M0,18 Q 18,0 36,18 Q 18,36 0,18 M42,9 L42,27" fill="none" stroke="gray"/></marker></defs><defs><marker orient="auto" markerHeight="36" markerWidth="45" refY="18" refX="27" id="ONE_OR_MORE_END"><path d="M3,9 L3,27 M9,18 Q27,0 45,18 Q27,36 9,18" fill="none" stroke="gray"/></marker></defs><defs><marker orient="auto" markerHeight="36" markerWidth="57" refY="18" refX="18" id="ZERO_OR_MORE_START"><circle r="6" cy="18" cx="48" fill="white" stroke="gray"/><path d="M0,18 Q18,0 36,18 Q18,36 0,18" fill="none" stroke="gray"/></marker></defs><defs><marker orient="auto" markerHeight="36" markerWidth="57" refY="18" refX="39" id="ZERO_OR_MORE_END"><circle r="6" cy="18" cx="9" fill="white" stroke="gray"/><path d="M21,18 Q39,0 57,18 Q39,36 21,18" fill="none" stroke="gray"/></marker></defs><path style="stroke: gray; fill: none;" marker-start="url(#ZERO_OR_ONE_START)" marker-end="url(#ONLY_ONE_END)" d="M99.63374328613281,191L99.63374328613281,199.33333333333334C99.63374328613281,207.66666666666666,99.63374328613281,224.33333333333334,99.63374328613281,248C99.63374328613281,271.6666666666667,99.63374328613281,302.3333333333333,99.63374328613281,317.6666666666667L99.63374328613281,333" class="er relationshipLine"/><path style="stroke: gray; fill: none;" marker-start="url(#ZERO_OR_MORE_START)" marker-end="url(#ZERO_OR_MORE_END)" d="M324.51077870161333,149L322.8340847395443,164.33333333333334C321.1573907774753,179.66666666666666,317.8040028533373,210.33333333333334,317.1151003341393,234C316.4261978149414,257.6666666666667,318.40178070068356,274.3333333333333,319.3895721435547,282.6666666666667L320.37736358642576,291" class="er relationshipLine"/><path style="stroke: gray; fill: none;" marker-start="url(#ZERO_OR_MORE_START)" marker-end="url(#ZERO_OR_MORE_END)" d="M224.06103728848254,770L230.75972416862476,758.1666666666666C237.45841104876703,746.3333333333334,250.85578480905147,722.6666666666666,251.27014358918487,700.75C251.68450236931827,678.8333333333334,239.11584616930057,658.6666666666666,232.83151806929175,648.5833333333334L226.5471899692829,638.5" class="er relationshipLine"/><path style="stroke: gray; fill: none;" marker-start="url(#ZERO_OR_MORE_START)" marker-end="url(#ZERO_OR_MORE_END)" d="M250.21578979492188,420.8882734360154L233.38629659016928,432.5735611966795C216.55680338541666,444.2588489573436,182.89781697591147,467.6294244786718,170.9352245881007,489.3980455726692C158.97263220029,511.1666666666667,168.70643383417374,531.3333333333334,173.5733346511156,541.4166666666666L178.4402354680575,551.5" class="er relationshipLine"/><path style="stroke: gray; fill: none;" marker-start="url(#ZERO_OR_MORE_START)" marker-end="url(#ZERO_OR_MORE_END)" d="M359.2674865722656,441L362.60081990559894,449.3333333333333C365.9341532389323,457.6666666666667,372.60081990559894,474.3333333333333,379.95638531904956,491C387.3119507325002,507.6666666666667,395.3564148927346,524.3333333333334,399.37864697285187,532.6666666666666L403.4008790529691,541" class="er relationshipLine"/><path style="stroke: gray; fill: none;" marker-start="url(#ZERO_OR_ONE_START)" marker-end="url(#ZERO_OR_ONE_END)" d="M389.14901275634764,291L395.8025156656901,282.6666666666667C402.4560185750326,274.3333333333333,415.76302439371744,257.6666666666667,411.1227585270542,234C406.4824926603911,210.33333333333334,383.89495510837986,179.66666666666666,372.6011863323742,164.33333333333334L361.30741755636853,149" class="er relationshipLine"/><path style="stroke: gray; fill: none;" marker-start="url(#ZERO_OR_ONE_START)" marker-end="url(#ONLY_ONE_END)" d="M178.4402354680575,638.5L173.5733346511156,648.5833333333334C168.70643383417374,658.6666666666666,158.97263220029,678.8333333333334,159.293532550088,700.75C159.614432899886,722.6666666666666,169.99003523336575,746.3333333333334,175.17783640010563,758.1666666666666L180.3656375668455,770" class="er relationshipLine"/><path style="stroke: gray; fill: none;" marker-start="url(#ZERO_OR_ONE_START)" marker-end="url(#ONLY_ONE_END)" d="M226.5471899692829,551.5L232.83151806929175,541.4166666666666C239.11584616930057,531.3333333333334,251.68450236931827,511.1666666666667,262.30311900285574,492.75C272.92173563639324,474.3333333333333,281.59031270345054,457.6666666666667,285.9246012369792,449.3333333333333L290.25888977050784,441" class="er relationshipLine"/><path style="stroke: gray; fill: none;" marker-start="url(#ZERO_OR_ONE_START)" marker-end="url(#ONLY_ONE_END)" d="M429.4649429321289,878L429.4649429321289,886.3333333333334C429.4649429321289,894.6666666666666,429.4649429321289,911.3333333333334,429.4649429321289,928C429.4649429321289,944.6666666666666,429.4649429321289,961.3333333333334,429.4649429321289,969.6666666666666L429.4649429321289,978" class="er relationshipLine"/><path style="stroke: gray; fill: none;" marker-start="url(#ZERO_OR_MORE_START)" marker-end="url(#ZERO_OR_MORE_END)" d="M457.5196509215509,749L461.14429019667006,740.6666666666666C464.76892947178914,732.3333333333334,472.0182080220274,715.6666666666666,471.65225886444324,699C471.2863097068591,682.3333333333334,463.3051328414526,665.6666666666666,459.31454440874927,657.3333333333334L455.323955976046,649" class="er relationshipLine"/><path style="stroke: gray; fill: none;" marker-start="url(#ZERO_OR_ONE_START)" marker-end="url(#ONLY_ONE_END)" d="M395.60497797452484,649L390.37967474032666,657.3333333333334C385.1543715061286,665.6666666666666,374.70376503773224,682.3333333333334,374.22458875861366,699C373.7454124794951,715.6666666666666,383.2376663896541,732.3333333333334,387.98379334473367,740.6666666666666L392.7299202998132,749" class="er relationshipLine"/><path style="stroke: gray; fill: none;" marker-start="url(#ZERO_OR_ONE_START)" marker-end="url(#ONLY_ONE_END)" d="M455.323955976046,541L459.31454440874927,532.6666666666666C463.3051328414526,524.3333333333334,471.2863097068591,507.6666666666667,463.4521809357863,489.4794023301866C455.61805216471356,471.2921379937066,431.96861775716144,451.58427598741326,420.14390055338544,441.73034498426654L408.3191833496094,431.8764139811198" class="er relationshipLine"/><g transform="translate(49.63374328613281,333 )" id="entity-UserRole-348851bc-4e3e-5e0e-a5b3-6fde704fd893"><rect height="66" width="100" y="0" x="0" class="er entityBox"/><text style="dominant-baseline: middle; text-anchor: middle; font-size: 12px;" transform="translate(50,12)" y="0" x="0" id="text-entity-UserRole-348851bc-4e3e-5e0e-a5b3-6fde704fd893" class="er entityLabel">UserRole</text><rect height="21" width="50" y="24" x="0" class="er attributeBoxOdd"/><text style="dominant-baseline: middle; font-size: 10.2px;" transform="translate(5,34.5)" y="0" x="0" id="text-entity-UserRole-348851bc-4e3e-5e0e-a5b3-6fde704fd893-attr-1-type" class="er entityLabel">WAITER</text><rect height="21" width="50" y="24" x="50" class="er attributeBoxOdd"/><text style="dominant-baseline: middle; font-size: 10.2px;" transform="translate(55,34.5)" y="0" x="0" id="text-entity-UserRole-348851bc-4e3e-5e0e-a5b3-6fde704fd893-attr-1-name" class="er entityLabel">WAITER</text><rect height="21" width="50" y="45" x="0" class="er attributeBoxEven"/><text style="dominant-baseline: middle; font-size: 10.2px;" transform="translate(5,55.5)" y="0" x="0" id="text-entity-UserRole-348851bc-4e3e-5e0e-a5b3-6fde704fd893-attr-2-type" class="er entityLabel">ADMIN</text><rect height="21" width="50" y="45" x="50" class="er attributeBoxEven"/><text style="dominant-baseline: middle; font-size: 10.2px;" transform="translate(55,55.5)" y="0" x="0" id="text-entity-UserRole-348851bc-4e3e-5e0e-a5b3-6fde704fd893-attr-2-name" class="er entityLabel">ADMIN</text></g><g transform="translate(335.1211929321289,978 )" id="entity-OrderStatus-489847e5-b4c3-58d7-85bd-dcef1f01fc1a"><rect height="87" width="188.6875" y="0" x="0" class="er entityBox"/><text style="dominant-baseline: middle; text-anchor: middle; font-size: 12px;" transform="translate(94.34375,12)" y="0" x="0" id="text-entity-OrderStatus-489847e5-b4c3-58d7-85bd-dcef1f01fc1a" class="er entityLabel">OrderStatus</text><rect height="21" width="94.34375" y="24" x="0" class="er attributeBoxOdd"/><text style="dominant-baseline: middle; font-size: 10.2px;" transform="translate(5,34.5)" y="0" x="0" id="text-entity-OrderStatus-489847e5-b4c3-58d7-85bd-dcef1f01fc1a-attr-1-type" class="er entityLabel">WAITING</text><rect height="21" width="94.34375" y="24" x="94.34375" class="er attributeBoxOdd"/><text style="dominant-baseline: middle; font-size: 10.2px;" transform="translate(99.34375,34.5)" y="0" x="0" id="text-entity-OrderStatus-489847e5-b4c3-58d7-85bd-dcef1f01fc1a-attr-1-name" class="er entityLabel">WAITING</text><rect height="21" width="94.34375" y="45" x="0" class="er attributeBoxEven"/><text style="dominant-baseline: middle; font-size: 10.2px;" transform="translate(5,55.5)" y="0" x="0" id="text-entity-OrderStatus-489847e5-b4c3-58d7-85bd-dcef1f01fc1a-attr-2-type" class="er entityLabel">IN_PRODUCTION</text><rect height="21" width="94.34375" y="45" x="94.34375" class="er attributeBoxEven"/><text style="dominant-baseline: middle; font-size: 10.2px;" transform="translate(99.34375,55.5)" y="0" x="0" id="text-entity-OrderStatus-489847e5-b4c3-58d7-85bd-dcef1f01fc1a-attr-2-name" class="er entityLabel">IN_PRODUCTION</text><rect height="21" width="94.34375" y="66" x="0" class="er attributeBoxOdd"/><text style="dominant-baseline: middle; font-size: 10.2px;" transform="translate(5,76.5)" y="0" x="0" id="text-entity-OrderStatus-489847e5-b4c3-58d7-85bd-dcef1f01fc1a-attr-3-type" class="er entityLabel">DONE</text><rect height="21" width="94.34375" y="66" x="94.34375" class="er attributeBoxOdd"/><text style="dominant-baseline: middle; font-size: 10.2px;" transform="translate(99.34375,76.5)" y="0" x="0" id="text-entity-OrderStatus-489847e5-b4c3-58d7-85bd-dcef1f01fc1a-attr-3-name" class="er entityLabel">DONE</text></g><g transform="translate(20,20 )" id="entity-users-33ae1e26-be31-5c1d-bf65-e859e9d0308e"><rect height="171" width="159.26748657226562" y="0" x="0" class="er entityBox"/><text style="dominant-baseline: middle; text-anchor: middle; font-size: 12px;" transform="translate(79.63374328613281,12)" y="0" x="0" id="text-entity-users-33ae1e26-be31-5c1d-bf65-e859e9d0308e" class="er entityLabel">users</text><rect height="21" width="54.113128662109375" y="24" x="0" class="er attributeBoxOdd"/><text style="dominant-baseline: middle; font-size: 10.2px;" transform="translate(5,34.5)" y="0" x="0" id="text-entity-users-33ae1e26-be31-5c1d-bf65-e859e9d0308e-attr-1-type" class="er entityLabel">String</text><rect height="21" width="81.359375" y="24" x="54.113128662109375" class="er attributeBoxOdd"/><text style="dominant-baseline: middle; font-size: 10.2px;" transform="translate(59.113128662109375,34.5)" y="0" x="0" id="text-entity-users-33ae1e26-be31-5c1d-bf65-e859e9d0308e-attr-1-name" class="er entityLabel">id</text><rect height="21" width="23.79498291015625" y="24" x="135.47250366210938" class="er attributeBoxOdd"/><text style="dominant-baseline: middle; font-size: 10.2px;" transform="translate(140.47250366210938,34.5)" y="0" x="0" id="text-entity-users-33ae1e26-be31-5c1d-bf65-e859e9d0308e-attr-1-comment" class="er entityLabel">PK</text><rect height="21" width="54.113128662109375" y="45" x="0" class="er attributeBoxEven"/><text style="dominant-baseline: middle; font-size: 10.2px;" transform="translate(5,55.5)" y="0" x="0" id="text-entity-users-33ae1e26-be31-5c1d-bf65-e859e9d0308e-attr-2-type" class="er entityLabel">String</text><rect height="21" width="81.359375" y="45" x="54.113128662109375" class="er attributeBoxEven"/><text style="dominant-baseline: middle; font-size: 10.2px;" transform="translate(59.113128662109375,55.5)" y="0" x="0" id="text-entity-users-33ae1e26-be31-5c1d-bf65-e859e9d0308e-attr-2-name" class="er entityLabel">name</text><rect height="21" width="23.79498291015625" y="45" x="135.47250366210938" class="er attributeBoxEven"/><text style="dominant-baseline: middle; font-size: 10.2px;" transform="translate(140.47250366210938,55.5)" y="0" x="0" id="text-entity-users-33ae1e26-be31-5c1d-bf65-e859e9d0308e-attr-2-comment" class="er entityLabel"/><rect height="21" width="54.113128662109375" y="66" x="0" class="er attributeBoxOdd"/><text style="dominant-baseline: middle; font-size: 10.2px;" transform="translate(5,76.5)" y="0" x="0" id="text-entity-users-33ae1e26-be31-5c1d-bf65-e859e9d0308e-attr-3-type" class="er entityLabel">String</text><rect height="21" width="81.359375" y="66" x="54.113128662109375" class="er attributeBoxOdd"/><text style="dominant-baseline: middle; font-size: 10.2px;" transform="translate(59.113128662109375,76.5)" y="0" x="0" id="text-entity-users-33ae1e26-be31-5c1d-bf65-e859e9d0308e-attr-3-name" class="er entityLabel">email</text><rect height="21" width="23.79498291015625" y="66" x="135.47250366210938" class="er attributeBoxOdd"/><text style="dominant-baseline: middle; font-size: 10.2px;" transform="translate(140.47250366210938,76.5)" y="0" x="0" id="text-entity-users-33ae1e26-be31-5c1d-bf65-e859e9d0308e-attr-3-comment" class="er entityLabel"/><rect height="21" width="54.113128662109375" y="87" x="0" class="er attributeBoxEven"/><text style="dominant-baseline: middle; font-size: 10.2px;" transform="translate(5,97.5)" y="0" x="0" id="text-entity-users-33ae1e26-be31-5c1d-bf65-e859e9d0308e-attr-4-type" class="er entityLabel">String</text><rect height="21" width="81.359375" y="87" x="54.113128662109375" class="er attributeBoxEven"/><text style="dominant-baseline: middle; font-size: 10.2px;" transform="translate(59.113128662109375,97.5)" y="0" x="0" id="text-entity-users-33ae1e26-be31-5c1d-bf65-e859e9d0308e-attr-4-name" class="er entityLabel">password_hash</text><rect height="21" width="23.79498291015625" y="87" x="135.47250366210938" class="er attributeBoxEven"/><text style="dominant-baseline: middle; font-size: 10.2px;" transform="translate(140.47250366210938,97.5)" y="0" x="0" id="text-entity-users-33ae1e26-be31-5c1d-bf65-e859e9d0308e-attr-4-comment" class="er entityLabel"/><rect height="21" width="54.113128662109375" y="108" x="0" class="er attributeBoxOdd"/><text style="dominant-baseline: middle; font-size: 10.2px;" transform="translate(5,118.5)" y="0" x="0" id="text-entity-users-33ae1e26-be31-5c1d-bf65-e859e9d0308e-attr-5-type" class="er entityLabel">UserRole</text><rect height="21" width="81.359375" y="108" x="54.113128662109375" class="er attributeBoxOdd"/><text style="dominant-baseline: middle; font-size: 10.2px;" transform="translate(59.113128662109375,118.5)" y="0" x="0" id="text-entity-users-33ae1e26-be31-5c1d-bf65-e859e9d0308e-attr-5-name" class="er entityLabel">role</text><rect height="21" width="23.79498291015625" y="108" x="135.47250366210938" class="er attributeBoxOdd"/><text style="dominant-baseline: middle; font-size: 10.2px;" transform="translate(140.47250366210938,118.5)" y="0" x="0" id="text-entity-users-33ae1e26-be31-5c1d-bf65-e859e9d0308e-attr-5-comment" class="er entityLabel"/><rect height="21" width="54.113128662109375" y="129" x="0" class="er attributeBoxEven"/><text style="dominant-baseline: middle; font-size: 10.2px;" transform="translate(5,139.5)" y="0" x="0" id="text-entity-users-33ae1e26-be31-5c1d-bf65-e859e9d0308e-attr-6-type" class="er entityLabel">DateTime</text><rect height="21" width="81.359375" y="129" x="54.113128662109375" class="er attributeBoxEven"/><text style="dominant-baseline: middle; font-size: 10.2px;" transform="translate(59.113128662109375,139.5)" y="0" x="0" id="text-entity-users-33ae1e26-be31-5c1d-bf65-e859e9d0308e-attr-6-name" class="er entityLabel">created_at</text><rect height="21" width="23.79498291015625" y="129" x="135.47250366210938" class="er attributeBoxEven"/><text style="dominant-baseline: middle; font-size: 10.2px;" transform="translate(140.47250366210938,139.5)" y="0" x="0" id="text-entity-users-33ae1e26-be31-5c1d-bf65-e859e9d0308e-attr-6-comment" class="er entityLabel"/><rect height="21" width="54.113128662109375" y="150" x="0" class="er attributeBoxOdd"/><text style="dominant-baseline: middle; font-size: 10.2px;" transform="translate(5,160.5)" y="0" x="0" id="text-entity-users-33ae1e26-be31-5c1d-bf65-e859e9d0308e-attr-7-type" class="er entityLabel">DateTime</text><rect height="21" width="81.359375" y="150" x="54.113128662109375" class="er attributeBoxOdd"/><text style="dominant-baseline: middle; font-size: 10.2px;" transform="translate(59.113128662109375,160.5)" y="0" x="0" id="text-entity-users-33ae1e26-be31-5c1d-bf65-e859e9d0308e-attr-7-name" class="er entityLabel">updated_at</text><rect height="21" width="23.79498291015625" y="150" x="135.47250366210938" class="er attributeBoxOdd"/><text style="dominant-baseline: middle; font-size: 10.2px;" transform="translate(140.47250366210938,160.5)" y="0" x="0" id="text-entity-users-33ae1e26-be31-5c1d-bf65-e859e9d0308e-attr-7-comment" class="er entityLabel"/></g><g transform="translate(279.2674865722656,62 )" id="entity-categories-a09d50f2-ac74-5856-9390-f2cc9b07f93b"><rect height="87" width="100" y="0" x="0" class="er entityBox"/><text style="dominant-baseline: middle; text-anchor: middle; font-size: 12px;" transform="translate(50,12)" y="0" x="0" id="text-entity-categories-a09d50f2-ac74-5856-9390-f2cc9b07f93b" class="er entityLabel">categories</text><rect height="21" width="38.09375" y="24" x="0" class="er attributeBoxOdd"/><text style="dominant-baseline: middle; font-size: 10.2px;" transform="translate(5,34.5)" y="0" x="0" id="text-entity-categories-a09d50f2-ac74-5856-9390-f2cc9b07f93b-attr-1-type" class="er entityLabel">String</text><rect height="21" width="36.964569091796875" y="24" x="38.09375" class="er attributeBoxOdd"/><text style="dominant-baseline: middle; font-size: 10.2px;" transform="translate(43.09375,34.5)" y="0" x="0" id="text-entity-categories-a09d50f2-ac74-5856-9390-f2cc9b07f93b-attr-1-name" class="er entityLabel">id</text><rect height="21" width="24.941680908203125" y="24" x="75.05831909179688" class="er attributeBoxOdd"/><text style="dominant-baseline: middle; font-size: 10.2px;" transform="translate(80.05831909179688,34.5)" y="0" x="0" id="text-entity-categories-a09d50f2-ac74-5856-9390-f2cc9b07f93b-attr-1-comment" class="er entityLabel">PK</text><rect height="21" width="38.09375" y="45" x="0" class="er attributeBoxEven"/><text style="dominant-baseline: middle; font-size: 10.2px;" transform="translate(5,55.5)" y="0" x="0" id="text-entity-categories-a09d50f2-ac74-5856-9390-f2cc9b07f93b-attr-2-type" class="er entityLabel">String</text><rect height="21" width="36.964569091796875" y="45" x="38.09375" class="er attributeBoxEven"/><text style="dominant-baseline: middle; font-size: 10.2px;" transform="translate(43.09375,55.5)" y="0" x="0" id="text-entity-categories-a09d50f2-ac74-5856-9390-f2cc9b07f93b-attr-2-name" class="er entityLabel">name</text><rect height="21" width="24.941680908203125" y="45" x="75.05831909179688" class="er attributeBoxEven"/><text style="dominant-baseline: middle; font-size: 10.2px;" transform="translate(80.05831909179688,55.5)" y="0" x="0" id="text-entity-categories-a09d50f2-ac74-5856-9390-f2cc9b07f93b-attr-2-comment" class="er entityLabel"/><rect height="21" width="38.09375" y="66" x="0" class="er attributeBoxOdd"/><text style="dominant-baseline: middle; font-size: 10.2px;" transform="translate(5,76.5)" y="0" x="0" id="text-entity-categories-a09d50f2-ac74-5856-9390-f2cc9b07f93b-attr-3-type" class="er entityLabel">String</text><rect height="21" width="36.964569091796875" y="66" x="38.09375" class="er attributeBoxOdd"/><text style="dominant-baseline: middle; font-size: 10.2px;" transform="translate(43.09375,76.5)" y="0" x="0" id="text-entity-categories-a09d50f2-ac74-5856-9390-f2cc9b07f93b-attr-3-name" class="er entityLabel">emoji</text><rect height="21" width="24.941680908203125" y="66" x="75.05831909179688" class="er attributeBoxOdd"/><text style="dominant-baseline: middle; font-size: 10.2px;" transform="translate(80.05831909179688,76.5)" y="0" x="0" id="text-entity-categories-a09d50f2-ac74-5856-9390-f2cc9b07f93b-attr-3-comment" class="er entityLabel"/></g><g transform="translate(149.43628692626953,770 )" id="entity-ingredients-dfe1a7c5-69b2-5c12-85c0-2b122290a70f"><rect height="87" width="100" y="0" x="0" class="er entityBox"/><text style="dominant-baseline: middle; text-anchor: middle; font-size: 12px;" transform="translate(50,12)" y="0" x="0" id="text-entity-ingredients-dfe1a7c5-69b2-5c12-85c0-2b122290a70f" class="er entityLabel">ingredients</text><rect height="21" width="38.09375" y="24" x="0" class="er attributeBoxOdd"/><text style="dominant-baseline: middle; font-size: 10.2px;" transform="translate(5,34.5)" y="0" x="0" id="text-entity-ingredients-dfe1a7c5-69b2-5c12-85c0-2b122290a70f-attr-1-type" class="er entityLabel">String</text><rect height="21" width="36.964569091796875" y="24" x="38.09375" class="er attributeBoxOdd"/><text style="dominant-baseline: middle; font-size: 10.2px;" transform="translate(43.09375,34.5)" y="0" x="0" id="text-entity-ingredients-dfe1a7c5-69b2-5c12-85c0-2b122290a70f-attr-1-name" class="er entityLabel">id</text><rect height="21" width="24.941680908203125" y="24" x="75.05831909179688" class="er attributeBoxOdd"/><text style="dominant-baseline: middle; font-size: 10.2px;" transform="translate(80.05831909179688,34.5)" y="0" x="0" id="text-entity-ingredients-dfe1a7c5-69b2-5c12-85c0-2b122290a70f-attr-1-comment" class="er entityLabel">PK</text><rect height="21" width="38.09375" y="45" x="0" class="er attributeBoxEven"/><text style="dominant-baseline: middle; font-size: 10.2px;" transform="translate(5,55.5)" y="0" x="0" id="text-entity-ingredients-dfe1a7c5-69b2-5c12-85c0-2b122290a70f-attr-2-type" class="er entityLabel">String</text><rect height="21" width="36.964569091796875" y="45" x="38.09375" class="er attributeBoxEven"/><text style="dominant-baseline: middle; font-size: 10.2px;" transform="translate(43.09375,55.5)" y="0" x="0" id="text-entity-ingredients-dfe1a7c5-69b2-5c12-85c0-2b122290a70f-attr-2-name" class="er entityLabel">name</text><rect height="21" width="24.941680908203125" y="45" x="75.05831909179688" class="er attributeBoxEven"/><text style="dominant-baseline: middle; font-size: 10.2px;" transform="translate(80.05831909179688,55.5)" y="0" x="0" id="text-entity-ingredients-dfe1a7c5-69b2-5c12-85c0-2b122290a70f-attr-2-comment" class="er entityLabel"/><rect height="21" width="38.09375" y="66" x="0" class="er attributeBoxOdd"/><text style="dominant-baseline: middle; font-size: 10.2px;" transform="translate(5,76.5)" y="0" x="0" id="text-entity-ingredients-dfe1a7c5-69b2-5c12-85c0-2b122290a70f-attr-3-type" class="er entityLabel">String</text><rect height="21" width="36.964569091796875" y="66" x="38.09375" class="er attributeBoxOdd"/><text style="dominant-baseline: middle; font-size: 10.2px;" transform="translate(43.09375,76.5)" y="0" x="0" id="text-entity-ingredients-dfe1a7c5-69b2-5c12-85c0-2b122290a70f-attr-3-name" class="er entityLabel">emoji</text><rect height="21" width="24.941680908203125" y="66" x="75.05831909179688" class="er attributeBoxOdd"/><text style="dominant-baseline: middle; font-size: 10.2px;" transform="translate(80.05831909179688,76.5)" y="0" x="0" id="text-entity-ingredients-dfe1a7c5-69b2-5c12-85c0-2b122290a70f-attr-3-comment" class="er entityLabel"/></g><g transform="translate(250.21578979492188,291 )" id="entity-products-ce7ac559-5ef1-5445-aa6b-0190aa04e35c"><rect height="150" width="158.1033935546875" y="0" x="0" class="er entityBox"/><text style="dominant-baseline: middle; text-anchor: middle; font-size: 12px;" transform="translate(79.05169677734375,12)" y="0" x="0" id="text-entity-products-ce7ac559-5ef1-5445-aa6b-0190aa04e35c" class="er entityLabel">products</text><rect height="21" width="36.947052001953125" y="24" x="0" class="er attributeBoxOdd"/><text style="dominant-baseline: middle; font-size: 10.2px;" transform="translate(5,34.5)" y="0" x="0" id="text-entity-products-ce7ac559-5ef1-5445-aa6b-0190aa04e35c-attr-1-type" class="er entityLabel">String</text><rect height="21" width="75.703125" y="24" x="36.947052001953125" class="er attributeBoxOdd"/><text style="dominant-baseline: middle; font-size: 10.2px;" transform="translate(41.947052001953125,34.5)" y="0" x="0" id="text-entity-products-ce7ac559-5ef1-5445-aa6b-0190aa04e35c-attr-1-name" class="er entityLabel">id</text><rect height="21" width="45.453216552734375" y="24" x="112.65017700195312" class="er attributeBoxOdd"/><text style="dominant-baseline: middle; font-size: 10.2px;" transform="translate(117.65017700195312,34.5)" y="0" x="0" id="text-entity-products-ce7ac559-5ef1-5445-aa6b-0190aa04e35c-attr-1-comment" class="er entityLabel">PK</text><rect height="21" width="36.947052001953125" y="45" x="0" class="er attributeBoxEven"/><text style="dominant-baseline: middle; font-size: 10.2px;" transform="translate(5,55.5)" y="0" x="0" id="text-entity-products-ce7ac559-5ef1-5445-aa6b-0190aa04e35c-attr-2-type" class="er entityLabel">String</text><rect height="21" width="75.703125" y="45" x="36.947052001953125" class="er attributeBoxEven"/><text style="dominant-baseline: middle; font-size: 10.2px;" transform="translate(41.947052001953125,55.5)" y="0" x="0" id="text-entity-products-ce7ac559-5ef1-5445-aa6b-0190aa04e35c-attr-2-name" class="er entityLabel">name</text><rect height="21" width="45.453216552734375" y="45" x="112.65017700195312" class="er attributeBoxEven"/><text style="dominant-baseline: middle; font-size: 10.2px;" transform="translate(117.65017700195312,55.5)" y="0" x="0" id="text-entity-products-ce7ac559-5ef1-5445-aa6b-0190aa04e35c-attr-2-comment" class="er entityLabel"/><rect height="21" width="36.947052001953125" y="66" x="0" class="er attributeBoxOdd"/><text style="dominant-baseline: middle; font-size: 10.2px;" transform="translate(5,76.5)" y="0" x="0" id="text-entity-products-ce7ac559-5ef1-5445-aa6b-0190aa04e35c-attr-3-type" class="er entityLabel">String</text><rect height="21" width="75.703125" y="66" x="36.947052001953125" class="er attributeBoxOdd"/><text style="dominant-baseline: middle; font-size: 10.2px;" transform="translate(41.947052001953125,76.5)" y="0" x="0" id="text-entity-products-ce7ac559-5ef1-5445-aa6b-0190aa04e35c-attr-3-name" class="er entityLabel">description</text><rect height="21" width="45.453216552734375" y="66" x="112.65017700195312" class="er attributeBoxOdd"/><text style="dominant-baseline: middle; font-size: 10.2px;" transform="translate(117.65017700195312,76.5)" y="0" x="0" id="text-entity-products-ce7ac559-5ef1-5445-aa6b-0190aa04e35c-attr-3-comment" class="er entityLabel"/><rect height="21" width="36.947052001953125" y="87" x="0" class="er attributeBoxEven"/><text style="dominant-baseline: middle; font-size: 10.2px;" transform="translate(5,97.5)" y="0" x="0" id="text-entity-products-ce7ac559-5ef1-5445-aa6b-0190aa04e35c-attr-4-type" class="er entityLabel">String</text><rect height="21" width="75.703125" y="87" x="36.947052001953125" class="er attributeBoxEven"/><text style="dominant-baseline: middle; font-size: 10.2px;" transform="translate(41.947052001953125,97.5)" y="0" x="0" id="text-entity-products-ce7ac559-5ef1-5445-aa6b-0190aa04e35c-attr-4-name" class="er entityLabel">image_path</text><rect height="21" width="45.453216552734375" y="87" x="112.65017700195312" class="er attributeBoxEven"/><text style="dominant-baseline: middle; font-size: 10.2px;" transform="translate(117.65017700195312,97.5)" y="0" x="0" id="text-entity-products-ce7ac559-5ef1-5445-aa6b-0190aa04e35c-attr-4-comment" class="er entityLabel"/><rect height="21" width="36.947052001953125" y="108" x="0" class="er attributeBoxOdd"/><text style="dominant-baseline: middle; font-size: 10.2px;" transform="translate(5,118.5)" y="0" x="0" id="text-entity-products-ce7ac559-5ef1-5445-aa6b-0190aa04e35c-attr-5-type" class="er entityLabel">Int</text><rect height="21" width="75.703125" y="108" x="36.947052001953125" class="er attributeBoxOdd"/><text style="dominant-baseline: middle; font-size: 10.2px;" transform="translate(41.947052001953125,118.5)" y="0" x="0" id="text-entity-products-ce7ac559-5ef1-5445-aa6b-0190aa04e35c-attr-5-name" class="er entityLabel">price_in_cents</text><rect height="21" width="45.453216552734375" y="108" x="112.65017700195312" class="er attributeBoxOdd"/><text style="dominant-baseline: middle; font-size: 10.2px;" transform="translate(117.65017700195312,118.5)" y="0" x="0" id="text-entity-products-ce7ac559-5ef1-5445-aa6b-0190aa04e35c-attr-5-comment" class="er entityLabel"/><rect height="21" width="36.947052001953125" y="129" x="0" class="er attributeBoxEven"/><text style="dominant-baseline: middle; font-size: 10.2px;" transform="translate(5,139.5)" y="0" x="0" id="text-entity-products-ce7ac559-5ef1-5445-aa6b-0190aa04e35c-attr-6-type" class="er entityLabel">String</text><rect height="21" width="75.703125" y="129" x="36.947052001953125" class="er attributeBoxEven"/><text style="dominant-baseline: middle; font-size: 10.2px;" transform="translate(41.947052001953125,139.5)" y="0" x="0" id="text-entity-products-ce7ac559-5ef1-5445-aa6b-0190aa04e35c-attr-6-name" class="er entityLabel">category_id</text><rect height="21" width="45.453216552734375" y="129" x="112.65017700195312" class="er attributeBoxEven"/><text style="dominant-baseline: middle; font-size: 10.2px;" transform="translate(117.65017700195312,139.5)" y="0" x="0" id="text-entity-products-ce7ac559-5ef1-5445-aa6b-0190aa04e35c-attr-6-comment" class="er entityLabel">nullable</text></g><g transform="translate(128.73316192626953,551.5 )" id="entity-productsingredients-4037abcb-b5a1-5aa8-ba46-70963f89d6a8"><rect height="87" width="141.40625" y="0" x="0" class="er entityBox"/><text style="dominant-baseline: middle; text-anchor: middle; font-size: 12px;" transform="translate(70.703125,12)" y="0" x="0" id="text-entity-productsingredients-4037abcb-b5a1-5aa8-ba46-70963f89d6a8" class="er entityLabel">products_ingredients</text><rect height="21" width="40.943939208984375" y="24" x="0" class="er attributeBoxOdd"/><text style="dominant-baseline: middle; font-size: 10.2px;" transform="translate(5,34.5)" y="0" x="0" id="text-entity-productsingredients-4037abcb-b5a1-5aa8-ba46-70963f89d6a8-attr-1-type" class="er entityLabel">String</text><rect height="21" width="72.67044067382812" y="24" x="40.943939208984375" class="er attributeBoxOdd"/><text style="dominant-baseline: middle; font-size: 10.2px;" transform="translate(45.943939208984375,34.5)" y="0" x="0" id="text-entity-productsingredients-4037abcb-b5a1-5aa8-ba46-70963f89d6a8-attr-1-name" class="er entityLabel">id</text><rect height="21" width="27.7918701171875" y="24" x="113.6143798828125" class="er attributeBoxOdd"/><text style="dominant-baseline: middle; font-size: 10.2px;" transform="translate(118.6143798828125,34.5)" y="0" x="0" id="text-entity-productsingredients-4037abcb-b5a1-5aa8-ba46-70963f89d6a8-attr-1-comment" class="er entityLabel">PK</text><rect height="21" width="40.943939208984375" y="45" x="0" class="er attributeBoxEven"/><text style="dominant-baseline: middle; font-size: 10.2px;" transform="translate(5,55.5)" y="0" x="0" id="text-entity-productsingredients-4037abcb-b5a1-5aa8-ba46-70963f89d6a8-attr-2-type" class="er entityLabel">String</text><rect height="21" width="72.67044067382812" y="45" x="40.943939208984375" class="er attributeBoxEven"/><text style="dominant-baseline: middle; font-size: 10.2px;" transform="translate(45.943939208984375,55.5)" y="0" x="0" id="text-entity-productsingredients-4037abcb-b5a1-5aa8-ba46-70963f89d6a8-attr-2-name" class="er entityLabel">product_id</text><rect height="21" width="27.7918701171875" y="45" x="113.6143798828125" class="er attributeBoxEven"/><text style="dominant-baseline: middle; font-size: 10.2px;" transform="translate(118.6143798828125,55.5)" y="0" x="0" id="text-entity-productsingredients-4037abcb-b5a1-5aa8-ba46-70963f89d6a8-attr-2-comment" class="er entityLabel"/><rect height="21" width="40.943939208984375" y="66" x="0" class="er attributeBoxOdd"/><text style="dominant-baseline: middle; font-size: 10.2px;" transform="translate(5,76.5)" y="0" x="0" id="text-entity-productsingredients-4037abcb-b5a1-5aa8-ba46-70963f89d6a8-attr-3-type" class="er entityLabel">String</text><rect height="21" width="72.67044067382812" y="66" x="40.943939208984375" class="er attributeBoxOdd"/><text style="dominant-baseline: middle; font-size: 10.2px;" transform="translate(45.943939208984375,76.5)" y="0" x="0" id="text-entity-productsingredients-4037abcb-b5a1-5aa8-ba46-70963f89d6a8-attr-3-name" class="er entityLabel">ingredient_id</text><rect height="21" width="27.7918701171875" y="66" x="113.6143798828125" class="er attributeBoxOdd"/><text style="dominant-baseline: middle; font-size: 10.2px;" transform="translate(118.6143798828125,76.5)" y="0" x="0" id="text-entity-productsingredients-4037abcb-b5a1-5aa8-ba46-70963f89d6a8-attr-3-comment" class="er entityLabel"/></g><g transform="translate(356.7885971069336,749 )" id="entity-orders-b199f09d-589f-57c9-bdcc-48b896df9a97"><rect height="129" width="145.35269165039062" y="0" x="0" class="er entityBox"/><text style="dominant-baseline: middle; text-anchor: middle; font-size: 12px;" transform="translate(72.67634582519531,12)" y="0" x="0" id="text-entity-orders-b199f09d-589f-57c9-bdcc-48b896df9a97" class="er entityLabel">orders</text><rect height="21" width="64.9375" y="24" x="0" class="er attributeBoxOdd"/><text style="dominant-baseline: middle; font-size: 10.2px;" transform="translate(5,34.5)" y="0" x="0" id="text-entity-orders-b199f09d-589f-57c9-bdcc-48b896df9a97-attr-1-type" class="er entityLabel">String</text><rect height="21" width="56.620208740234375" y="24" x="64.9375" class="er attributeBoxOdd"/><text style="dominant-baseline: middle; font-size: 10.2px;" transform="translate(69.9375,34.5)" y="0" x="0" id="text-entity-orders-b199f09d-589f-57c9-bdcc-48b896df9a97-attr-1-name" class="er entityLabel">id</text><rect height="21" width="23.79498291015625" y="24" x="121.55770874023438" class="er attributeBoxOdd"/><text style="dominant-baseline: middle; font-size: 10.2px;" transform="translate(126.55770874023438,34.5)" y="0" x="0" id="text-entity-orders-b199f09d-589f-57c9-bdcc-48b896df9a97-attr-1-comment" class="er entityLabel">PK</text><rect height="21" width="64.9375" y="45" x="0" class="er attributeBoxEven"/><text style="dominant-baseline: middle; font-size: 10.2px;" transform="translate(5,55.5)" y="0" x="0" id="text-entity-orders-b199f09d-589f-57c9-bdcc-48b896df9a97-attr-2-type" class="er entityLabel">Int</text><rect height="21" width="56.620208740234375" y="45" x="64.9375" class="er attributeBoxEven"/><text style="dominant-baseline: middle; font-size: 10.2px;" transform="translate(69.9375,55.5)" y="0" x="0" id="text-entity-orders-b199f09d-589f-57c9-bdcc-48b896df9a97-attr-2-name" class="er entityLabel">table</text><rect height="21" width="23.79498291015625" y="45" x="121.55770874023438" class="er attributeBoxEven"/><text style="dominant-baseline: middle; font-size: 10.2px;" transform="translate(126.55770874023438,55.5)" y="0" x="0" id="text-entity-orders-b199f09d-589f-57c9-bdcc-48b896df9a97-attr-2-comment" class="er entityLabel"/><rect height="21" width="64.9375" y="66" x="0" class="er attributeBoxOdd"/><text style="dominant-baseline: middle; font-size: 10.2px;" transform="translate(5,76.5)" y="0" x="0" id="text-entity-orders-b199f09d-589f-57c9-bdcc-48b896df9a97-attr-3-type" class="er entityLabel">OrderStatus</text><rect height="21" width="56.620208740234375" y="66" x="64.9375" class="er attributeBoxOdd"/><text style="dominant-baseline: middle; font-size: 10.2px;" transform="translate(69.9375,76.5)" y="0" x="0" id="text-entity-orders-b199f09d-589f-57c9-bdcc-48b896df9a97-attr-3-name" class="er entityLabel">status</text><rect height="21" width="23.79498291015625" y="66" x="121.55770874023438" class="er attributeBoxOdd"/><text style="dominant-baseline: middle; font-size: 10.2px;" transform="translate(126.55770874023438,76.5)" y="0" x="0" id="text-entity-orders-b199f09d-589f-57c9-bdcc-48b896df9a97-attr-3-comment" class="er entityLabel"/><rect height="21" width="64.9375" y="87" x="0" class="er attributeBoxEven"/><text style="dominant-baseline: middle; font-size: 10.2px;" transform="translate(5,97.5)" y="0" x="0" id="text-entity-orders-b199f09d-589f-57c9-bdcc-48b896df9a97-attr-4-type" class="er entityLabel">DateTime</text><rect height="21" width="56.620208740234375" y="87" x="64.9375" class="er attributeBoxEven"/><text style="dominant-baseline: middle; font-size: 10.2px;" transform="translate(69.9375,97.5)" y="0" x="0" id="text-entity-orders-b199f09d-589f-57c9-bdcc-48b896df9a97-attr-4-name" class="er entityLabel">createdAt</text><rect height="21" width="23.79498291015625" y="87" x="121.55770874023438" class="er attributeBoxEven"/><text style="dominant-baseline: middle; font-size: 10.2px;" transform="translate(126.55770874023438,97.5)" y="0" x="0" id="text-entity-orders-b199f09d-589f-57c9-bdcc-48b896df9a97-attr-4-comment" class="er entityLabel"/><rect height="21" width="64.9375" y="108" x="0" class="er attributeBoxOdd"/><text style="dominant-baseline: middle; font-size: 10.2px;" transform="translate(5,118.5)" y="0" x="0" id="text-entity-orders-b199f09d-589f-57c9-bdcc-48b896df9a97-attr-5-type" class="er entityLabel">DateTime</text><rect height="21" width="56.620208740234375" y="108" x="64.9375" class="er attributeBoxOdd"/><text style="dominant-baseline: middle; font-size: 10.2px;" transform="translate(69.9375,118.5)" y="0" x="0" id="text-entity-orders-b199f09d-589f-57c9-bdcc-48b896df9a97-attr-5-name" class="er entityLabel">updatedAt</text><rect height="21" width="23.79498291015625" y="108" x="121.55770874023438" class="er attributeBoxOdd"/><text style="dominant-baseline: middle; font-size: 10.2px;" transform="translate(126.55770874023438,118.5)" y="0" x="0" id="text-entity-orders-b199f09d-589f-57c9-bdcc-48b896df9a97-attr-5-comment" class="er entityLabel"/></g><g transform="translate(370.13941192626953,541 )" id="entity-OrderProducts-a30f4460-61ad-5f42-a1d4-b7484e5f26c9"><rect height="108" width="118.65106201171875" y="0" x="0" class="er entityBox"/><text style="dominant-baseline: middle; text-anchor: middle; font-size: 12px;" transform="translate(59.325531005859375,12)" y="0" x="0" id="text-entity-OrderProducts-a30f4460-61ad-5f42-a1d4-b7484e5f26c9" class="er entityLabel">OrderProducts</text><rect height="21" width="36.947052001953125" y="24" x="0" class="er attributeBoxOdd"/><text style="dominant-baseline: middle; font-size: 10.2px;" transform="translate(5,34.5)" y="0" x="0" id="text-entity-OrderProducts-a30f4460-61ad-5f42-a1d4-b7484e5f26c9-attr-1-type" class="er entityLabel">String</text><rect height="21" width="57.909027099609375" y="24" x="36.947052001953125" class="er attributeBoxOdd"/><text style="dominant-baseline: middle; font-size: 10.2px;" transform="translate(41.947052001953125,34.5)" y="0" x="0" id="text-entity-OrderProducts-a30f4460-61ad-5f42-a1d4-b7484e5f26c9-attr-1-name" class="er entityLabel">id</text><rect height="21" width="23.79498291015625" y="24" x="94.8560791015625" class="er attributeBoxOdd"/><text style="dominant-baseline: middle; font-size: 10.2px;" transform="translate(99.8560791015625,34.5)" y="0" x="0" id="text-entity-OrderProducts-a30f4460-61ad-5f42-a1d4-b7484e5f26c9-attr-1-comment" class="er entityLabel">PK</text><rect height="21" width="36.947052001953125" y="45" x="0" class="er attributeBoxEven"/><text style="dominant-baseline: middle; font-size: 10.2px;" transform="translate(5,55.5)" y="0" x="0" id="text-entity-OrderProducts-a30f4460-61ad-5f42-a1d4-b7484e5f26c9-attr-2-type" class="er entityLabel">String</text><rect height="21" width="57.909027099609375" y="45" x="36.947052001953125" class="er attributeBoxEven"/><text style="dominant-baseline: middle; font-size: 10.2px;" transform="translate(41.947052001953125,55.5)" y="0" x="0" id="text-entity-OrderProducts-a30f4460-61ad-5f42-a1d4-b7484e5f26c9-attr-2-name" class="er entityLabel">order_id</text><rect height="21" width="23.79498291015625" y="45" x="94.8560791015625" class="er attributeBoxEven"/><text style="dominant-baseline: middle; font-size: 10.2px;" transform="translate(99.8560791015625,55.5)" y="0" x="0" id="text-entity-OrderProducts-a30f4460-61ad-5f42-a1d4-b7484e5f26c9-attr-2-comment" class="er entityLabel"/><rect height="21" width="36.947052001953125" y="66" x="0" class="er attributeBoxOdd"/><text style="dominant-baseline: middle; font-size: 10.2px;" transform="translate(5,76.5)" y="0" x="0" id="text-entity-OrderProducts-a30f4460-61ad-5f42-a1d4-b7484e5f26c9-attr-3-type" class="er entityLabel">String</text><rect height="21" width="57.909027099609375" y="66" x="36.947052001953125" class="er attributeBoxOdd"/><text style="dominant-baseline: middle; font-size: 10.2px;" transform="translate(41.947052001953125,76.5)" y="0" x="0" id="text-entity-OrderProducts-a30f4460-61ad-5f42-a1d4-b7484e5f26c9-attr-3-name" class="er entityLabel">product_id</text><rect height="21" width="23.79498291015625" y="66" x="94.8560791015625" class="er attributeBoxOdd"/><text style="dominant-baseline: middle; font-size: 10.2px;" transform="translate(99.8560791015625,76.5)" y="0" x="0" id="text-entity-OrderProducts-a30f4460-61ad-5f42-a1d4-b7484e5f26c9-attr-3-comment" class="er entityLabel"/><rect height="21" width="36.947052001953125" y="87" x="0" class="er attributeBoxEven"/><text style="dominant-baseline: middle; font-size: 10.2px;" transform="translate(5,97.5)" y="0" x="0" id="text-entity-OrderProducts-a30f4460-61ad-5f42-a1d4-b7484e5f26c9-attr-4-type" class="er entityLabel">Int</text><rect height="21" width="57.909027099609375" y="87" x="36.947052001953125" class="er attributeBoxEven"/><text style="dominant-baseline: middle; font-size: 10.2px;" transform="translate(41.947052001953125,97.5)" y="0" x="0" id="text-entity-OrderProducts-a30f4460-61ad-5f42-a1d4-b7484e5f26c9-attr-4-name" class="er entityLabel">quantity</text><rect height="21" width="23.79498291015625" y="87" x="94.8560791015625" class="er attributeBoxEven"/><text style="dominant-baseline: middle; font-size: 10.2px;" transform="translate(99.8560791015625,97.5)" y="0" x="0" id="text-entity-OrderProducts-a30f4460-61ad-5f42-a1d4-b7484e5f26c9-attr-4-comment" class="er entityLabel"/></g><rect height="14" width="53.6875" y="255" x="72.78999328613281" class="er relationshipLabelBox"/><text style="text-anchor: middle; dominant-baseline: middle; font-size: 12px;" y="262" x="99.63374328613281" id="rel1" class="er relationshipLabel">enum:role</text><rect height="14" width="46.03125" y="212.92401123046875" x="294.74993896484375" class="er relationshipLabelBox"/><text style="text-anchor: middle; dominant-baseline: middle; font-size: 12px;" y="219.92401123046875" x="317.76556396484375" id="rel2" class="er relationshipLabel">products</text><rect height="14" width="46.03125" y="697.3296508789062" x="228.07553100585938" class="er relationshipLabelBox"/><text style="text-anchor: middle; dominant-baseline: middle; font-size: 12px;" y="704.3296508789062" x="251.09115600585938" id="rel3" class="er relationshipLabel">products</text><rect height="14" width="58.71875" y="466.4824523925781" x="153.54373168945312" class="er relationshipLabelBox"/><text style="text-anchor: middle; dominant-baseline: middle; font-size: 12px;" y="473.4824523925781" x="182.90310668945312" id="rel4" class="er relationshipLabel">ingredients</text><rect height="14" width="75.375" y="484.50848388671875" x="342.49395751953125" class="er relationshipLabelBox"/><text style="text-anchor: middle; dominant-baseline: middle; font-size: 12px;" y="491.50848388671875" x="380.18145751953125" id="rel5" class="er relationshipLabel">orderProducts</text><rect height="14" width="46.03125" y="210.10812377929688" x="382.5348815917969" class="er relationshipLabelBox"/><text style="text-anchor: middle; dominant-baseline: middle; font-size: 12px;" y="217.10812377929688" x="405.5505065917969" id="rel6" class="er relationshipLabel">category</text><rect height="14" width="53.37109375" y="697.2926635742188" x="132.74441528320312" class="er relationshipLabelBox"/><text style="text-anchor: middle; dominant-baseline: middle; font-size: 12px;" y="704.2926635742188" x="159.42996215820312" id="rel7" class="er relationshipLabel">ingredient</text><rect height="14" width="40.69140625" y="490.0548400878906" x="239.45849609375" class="er relationshipLabelBox"/><text style="text-anchor: middle; dominant-baseline: middle; font-size: 12px;" y="497.0548400878906" x="259.80419921875" id="rel8" class="er relationshipLabel">product</text><rect height="14" width="65.375" y="921" x="396.7774353027344" class="er relationshipLabelBox"/><text style="text-anchor: middle; dominant-baseline: middle; font-size: 12px;" y="928" x="429.4649353027344" id="rel9" class="er relationshipLabel">enum:status</text><rect height="14" width="46.03125" y="691.6875" x="448.628662109375" class="er relationshipLabelBox"/><text style="text-anchor: middle; dominant-baseline: middle; font-size: 12px;" y="698.6875" x="471.644287109375" id="rel10" class="er relationshipLabel">products</text><rect height="14" width="28.017578125" y="691.4863891601562" x="360.2341003417969" class="er relationshipLabelBox"/><text style="text-anchor: middle; dominant-baseline: middle; font-size: 12px;" y="698.4863891601562" x="374.2428894042969" id="rel11" class="er relationshipLabel">order</text><rect height="14" width="40.69140625" y="471.17303466796875" x="436.5125427246094" class="er relationshipLabelBox"/><text style="text-anchor: middle; dominant-baseline: middle; font-size: 12px;" y="478.17303466796875" x="456.8582458496094" id="rel12" class="er relationshipLabel">product</text></svg>