<svg aria-roledescription="er" role="graphics-document document" viewBox="0 0 435.0755310058594 1001" style="max-width: 435.076px; background-color: white;" xmlns:xlink="http://www.w3.org/1999/xlink" xmlns="http://www.w3.org/2000/svg" width="100%" id="my-svg"><style>#my-svg{font-family:"trebuchet ms",verdana,arial,sans-serif;font-size:16px;fill:#000000;}#my-svg .error-icon{fill:#552222;}#my-svg .error-text{fill:#552222;stroke:#552222;}#my-svg .edge-thickness-normal{stroke-width:2px;}#my-svg .edge-thickness-thick{stroke-width:3.5px;}#my-svg .edge-pattern-solid{stroke-dasharray:0;}#my-svg .edge-pattern-dashed{stroke-dasharray:3;}#my-svg .edge-pattern-dotted{stroke-dasharray:2;}#my-svg .marker{fill:#000000;stroke:#000000;}#my-svg .marker.cross{stroke:#000000;}#my-svg svg{font-family:"trebuchet ms",verdana,arial,sans-serif;font-size:16px;}#my-svg .entityBox{fill:#cde498;stroke:#13540c;}#my-svg .attributeBoxOdd{fill:#ffffff;stroke:#13540c;}#my-svg .attributeBoxEven{fill:#f2f2f2;stroke:#13540c;}#my-svg .relationshipLabelBox{fill:hsl(78.1578947368, 58.4615384615%, 84.5098039216%);opacity:0.7;background-color:hsl(78.1578947368, 58.4615384615%, 84.5098039216%);}#my-svg .relationshipLabelBox rect{opacity:0.5;}#my-svg .relationshipLine{stroke:#000000;}#my-svg .entityTitleText{text-anchor:middle;font-size:18px;fill:#000000;}#my-svg #MD_PARENT_START{fill:#f5f5f5!important;stroke:#000000!important;stroke-width:1;}#my-svg #MD_PARENT_END{fill:#f5f5f5!important;stroke:#000000!important;stroke-width:1;}#my-svg :root{--mermaid-font-family:"trebuchet ms",verdana,arial,sans-serif;}</style><g/><defs><marker orient="auto" markerHeight="240" markerWidth="190" refY="7" refX="0" id="MD_PARENT_START"><path d="M 18,7 L9,13 L1,7 L9,1 Z"/></marker></defs><defs><marker orient="auto" markerHeight="28" markerWidth="20" refY="7" refX="19" id="MD_PARENT_END"><path d="M 18,7 L9,13 L1,7 L9,1 Z"/></marker></defs><defs><marker orient="auto" markerHeight="18" markerWidth="18" refY="9" refX="0" id="ONLY_ONE_START"><path d="M9,0 L9,18 M15,0 L15,18" fill="none" stroke="gray"/></marker></defs><defs><marker orient="auto" markerHeight="18" markerWidth="18" refY="9" refX="18" id="ONLY_ONE_END"><path d="M3,0 L3,18 M9,0 L9,18" fill="none" stroke="gray"/></marker></defs><defs><marker orient="auto" markerHeight="18" markerWidth="30" refY="9" refX="0" id="ZERO_OR_ONE_START"><circle r="6" cy="9" cx="21" fill="white" stroke="gray"/><path d="M9,0 L9,18" fill="none" stroke="gray"/></marker></defs><defs><marker orient="auto" markerHeight="18" markerWidth="30" refY="9" refX="30" id="ZERO_OR_ONE_END"><circle r="6" cy="9" cx="9" fill="white" stroke="gray"/><path d="M21,0 L21,18" fill="none" stroke="gray"/></marker></defs><defs><marker orient="auto" markerHeight="36" markerWidth="45" refY="18" refX="18" id="ONE_OR_MORE_START"><path d="M0,18 Q 18,0 36,18 Q 18,36 0,18 M42,9 L42,27" fill="none" stroke="gray"/></marker></defs><defs><marker orient="auto" markerHeight="36" markerWidth="45" refY="18" refX="27" id="ONE_OR_MORE_END"><path d="M3,9 L3,27 M9,18 Q27,0 45,18 Q27,36 9,18" fill="none" stroke="gray"/></marker></defs><defs><marker orient="auto" markerHeight="36" markerWidth="57" refY="18" refX="18" id="ZERO_OR_MORE_START"><circle r="6" cy="18" cx="48" fill="white" stroke="gray"/><path d="M0,18 Q18,0 36,18 Q18,36 0,18" fill="none" stroke="gray"/></marker></defs><defs><marker orient="auto" markerHeight="36" markerWidth="57" refY="18" refX="39" id="ZERO_OR_MORE_END"><circle r="6" cy="18" cx="9" fill="white" stroke="gray"/><path d="M21,18 Q39,0 57,18 Q39,36 21,18" fill="none" stroke="gray"/></marker></defs><path style="stroke: gray; fill: none;" marker-start="url(#ZERO_OR_MORE_START)" marker-end="url(#ZERO_OR_MORE_END)" d="M182.4554209173682,107L177.99909293162844,115.33333333333333C173.5427649458887,123.66666666666667,164.63010897440918,140.33333333333334,163.50711432200276,157C162.38411966959634,173.66666666666666,169.05078633626303,190.33333333333334,172.38411966959634,198.66666666666666L175.7174530029297,207" class="er relationshipLine"/><path style="stroke: gray; fill: none;" marker-start="url(#ZERO_OR_MORE_START)" marker-end="url(#ZERO_OR_MORE_END)" d="M115.40289153386412,686L122.12198511204171,674.1666666666666C128.84107869021932,662.3333333333334,142.2792658465745,638.6666666666666,142.6948869180578,616.75C143.11050798954108,594.8333333333334,130.50356297615247,574.6666666666666,124.20009046945817,564.5833333333334L117.89661796276386,554.5" class="er relationshipLine"/><path style="stroke: gray; fill: none;" marker-start="url(#ZERO_OR_MORE_START)" marker-end="url(#ZERO_OR_MORE_END)" d="M126.66575622558594,341.88244909855666L112.33865102132161,352.7353742487972C98.0115458170573,363.5882993990378,69.35733540852864,385.29414969951887,59.87798661452073,406.2304081830928C50.39863782051282,427.1666666666667,60.094150641025635,447.3333333333333,64.94190705128204,457.4166666666667L69.78966346153845,467.5" class="er relationshipLine"/><path style="stroke: gray; fill: none;" marker-start="url(#ZERO_OR_MORE_START)" marker-end="url(#ZERO_OR_MORE_END)" d="M244.7260498046875,357L249.06033833821616,365.3333333333333C253.39462687174478,373.6666666666667,262.0632039388021,390.3333333333333,270.403902728741,407C278.7446015186799,423.6666666666667,286.7574220315004,440.3333333333333,290.76383228791065,448.6666666666667L294.7702425443209,457" class="er relationshipLine"/><path style="stroke: gray; fill: none;" marker-start="url(#ZERO_OR_ONE_START)" marker-end="url(#ZERO_OR_ONE_END)" d="M235.7174530029297,207L239.05078633626303,198.66666666666666C242.38411966959634,190.33333333333334,249.05078633626303,173.66666666666666,247.9277916838566,157C246.8047970314502,140.33333333333334,237.89214105997067,123.66666666666667,233.43581307423094,115.33333333333333L228.97948508849117,107" class="er relationshipLine"/><path style="stroke: gray; fill: none;" marker-start="url(#ZERO_OR_ONE_START)" marker-end="url(#ONLY_ONE_END)" d="M69.78966346153845,554.5L64.94190705128204,564.5833333333334C60.094150641025635,574.6666666666666,50.39863782051282,594.8333333333334,50.718275878960924,616.75C51.03791393740903,638.6666666666666,61.37270287481805,662.3333333333334,66.54009734352256,674.1666666666666L71.70749181222708,686" class="er relationshipLine"/><path style="stroke: gray; fill: none;" marker-start="url(#ZERO_OR_ONE_START)" marker-end="url(#ONLY_ONE_END)" d="M111.61658653846155,467.5L116.46434294871796,457.4166666666667C121.31209935897436,447.3333333333333,131.00761217948718,427.1666666666667,140.18965712327224,408.75C149.3717020670573,390.3333333333333,158.04027913411457,373.6666666666667,162.37456766764322,365.3333333333333L166.70885620117187,357" class="er relationshipLine"/><path style="stroke: gray; fill: none;" marker-start="url(#ZERO_OR_ONE_START)" marker-end="url(#ONLY_ONE_END)" d="M320.7317810058594,794L320.7317810058594,802.3333333333334C320.7317810058594,810.6666666666666,320.7317810058594,827.3333333333334,320.7317810058594,844C320.7317810058594,860.6666666666666,320.7317810058594,877.3333333333334,320.7317810058594,885.6666666666666L320.7317810058594,894" class="er relationshipLine"/><path style="stroke: gray; fill: none;" marker-start="url(#ZERO_OR_MORE_START)" marker-end="url(#ZERO_OR_MORE_END)" d="M348.8977198704882,665L352.5367300597167,656.6666666666666C356.1757402489452,648.3333333333334,363.4537606274023,631.6666666666666,363.08636056022056,615C362.7189604930389,598.3333333333334,354.7061399802183,581.6666666666666,350.6997297238081,573.3333333333334L346.6933194673978,565" class="er relationshipLine"/><path style="stroke: gray; fill: none;" marker-start="url(#ZERO_OR_ONE_START)" marker-end="url(#ONLY_ONE_END)" d="M286.97434146587665,565L281.7648600553855,573.3333333333334C276.55537864489435,581.6666666666666,266.13641582391205,598.3333333333334,265.658690454391,615C265.18096508486997,631.6666666666666,274.64447716681025,648.3333333333334,279.3762332077804,656.6666666666666L284.1079892487505,665" class="er relationshipLine"/><path style="stroke: gray; fill: none;" marker-start="url(#ZERO_OR_ONE_START)" marker-end="url(#ONLY_ONE_END)" d="M346.6933194673978,457L350.6997297238081,448.6666666666667C354.7061399802183,440.3333333333333,362.7189604930389,423.6666666666667,352.3982655451848,404.4804081830928C342.07757059733075,385.29414969951887,313.42336018880206,363.5882993990378,299.0962549845378,352.7353742487972L284.76914978027344,341.88244909855666" class="er relationshipLine"/><g transform="translate(226.38803100585938,894 )" id="entity-OrderStatus-489847e5-b4c3-58d7-85bd-dcef1f01fc1a"><rect height="87" width="188.6875" y="0" x="0" class="er entityBox"/><text style="dominant-baseline: middle; text-anchor: middle; font-size: 12px;" transform="translate(94.34375,12)" y="0" x="0" id="text-entity-OrderStatus-489847e5-b4c3-58d7-85bd-dcef1f01fc1a" class="er entityLabel">OrderStatus</text><rect height="21" width="94.34375" y="24" x="0" class="er attributeBoxOdd"/><text style="dominant-baseline: middle; font-size: 10.2px;" transform="translate(5,34.5)" y="0" x="0" id="text-entity-OrderStatus-489847e5-b4c3-58d7-85bd-dcef1f01fc1a-attr-1-type" class="er entityLabel">WAITING</text><rect height="21" width="94.34375" y="24" x="94.34375" class="er attributeBoxOdd"/><text style="dominant-baseline: middle; font-size: 10.2px;" transform="translate(99.34375,34.5)" y="0" x="0" id="text-entity-OrderStatus-489847e5-b4c3-58d7-85bd-dcef1f01fc1a-attr-1-name" class="er entityLabel">WAITING</text><rect height="21" width="94.34375" y="45" x="0" class="er attributeBoxEven"/><text style="dominant-baseline: middle; font-size: 10.2px;" transform="translate(5,55.5)" y="0" x="0" id="text-entity-OrderStatus-489847e5-b4c3-58d7-85bd-dcef1f01fc1a-attr-2-type" class="er entityLabel">IN_PRODUCTION</text><rect height="21" width="94.34375" y="45" x="94.34375" class="er attributeBoxEven"/><text style="dominant-baseline: middle; font-size: 10.2px;" transform="translate(99.34375,55.5)" y="0" x="0" id="text-entity-OrderStatus-489847e5-b4c3-58d7-85bd-dcef1f01fc1a-attr-2-name" class="er entityLabel">IN_PRODUCTION</text><rect height="21" width="94.34375" y="66" x="0" class="er attributeBoxOdd"/><text style="dominant-baseline: middle; font-size: 10.2px;" transform="translate(5,76.5)" y="0" x="0" id="text-entity-OrderStatus-489847e5-b4c3-58d7-85bd-dcef1f01fc1a-attr-3-type" class="er entityLabel">DONE</text><rect height="21" width="94.34375" y="66" x="94.34375" class="er attributeBoxOdd"/><text style="dominant-baseline: middle; font-size: 10.2px;" transform="translate(99.34375,76.5)" y="0" x="0" id="text-entity-OrderStatus-489847e5-b4c3-58d7-85bd-dcef1f01fc1a-attr-3-name" class="er entityLabel">DONE</text></g><g transform="translate(155.7174530029297,20 )" id="entity-categories-a09d50f2-ac74-5856-9390-f2cc9b07f93b"><rect height="87" width="100" y="0" x="0" class="er entityBox"/><text style="dominant-baseline: middle; text-anchor: middle; font-size: 12px;" transform="translate(50,12)" y="0" x="0" id="text-entity-categories-a09d50f2-ac74-5856-9390-f2cc9b07f93b" class="er entityLabel">categories</text><rect height="21" width="38.09375" y="24" x="0" class="er attributeBoxOdd"/><text style="dominant-baseline: middle; font-size: 10.2px;" transform="translate(5,34.5)" y="0" x="0" id="text-entity-categories-a09d50f2-ac74-5856-9390-f2cc9b07f93b-attr-1-type" class="er entityLabel">String</text><rect height="21" width="36.964569091796875" y="24" x="38.09375" class="er attributeBoxOdd"/><text style="dominant-baseline: middle; font-size: 10.2px;" transform="translate(43.09375,34.5)" y="0" x="0" id="text-entity-categories-a09d50f2-ac74-5856-9390-f2cc9b07f93b-attr-1-name" class="er entityLabel">id</text><rect height="21" width="24.941680908203125" y="24" x="75.05831909179688" class="er attributeBoxOdd"/><text style="dominant-baseline: middle; font-size: 10.2px;" transform="translate(80.05831909179688,34.5)" y="0" x="0" id="text-entity-categories-a09d50f2-ac74-5856-9390-f2cc9b07f93b-attr-1-comment" class="er entityLabel">PK</text><rect height="21" width="38.09375" y="45" x="0" class="er attributeBoxEven"/><text style="dominant-baseline: middle; font-size: 10.2px;" transform="translate(5,55.5)" y="0" x="0" id="text-entity-categories-a09d50f2-ac74-5856-9390-f2cc9b07f93b-attr-2-type" class="er entityLabel">String</text><rect height="21" width="36.964569091796875" y="45" x="38.09375" class="er attributeBoxEven"/><text style="dominant-baseline: middle; font-size: 10.2px;" transform="translate(43.09375,55.5)" y="0" x="0" id="text-entity-categories-a09d50f2-ac74-5856-9390-f2cc9b07f93b-attr-2-name" class="er entityLabel">name</text><rect height="21" width="24.941680908203125" y="45" x="75.05831909179688" class="er attributeBoxEven"/><text style="dominant-baseline: middle; font-size: 10.2px;" transform="translate(80.05831909179688,55.5)" y="0" x="0" id="text-entity-categories-a09d50f2-ac74-5856-9390-f2cc9b07f93b-attr-2-comment" class="er entityLabel"/><rect height="21" width="38.09375" y="66" x="0" class="er attributeBoxOdd"/><text style="dominant-baseline: middle; font-size: 10.2px;" transform="translate(5,76.5)" y="0" x="0" id="text-entity-categories-a09d50f2-ac74-5856-9390-f2cc9b07f93b-attr-3-type" class="er entityLabel">String</text><rect height="21" width="36.964569091796875" y="66" x="38.09375" class="er attributeBoxOdd"/><text style="dominant-baseline: middle; font-size: 10.2px;" transform="translate(43.09375,76.5)" y="0" x="0" id="text-entity-categories-a09d50f2-ac74-5856-9390-f2cc9b07f93b-attr-3-name" class="er entityLabel">emoji</text><rect height="21" width="24.941680908203125" y="66" x="75.05831909179688" class="er attributeBoxOdd"/><text style="dominant-baseline: middle; font-size: 10.2px;" transform="translate(80.05831909179688,76.5)" y="0" x="0" id="text-entity-categories-a09d50f2-ac74-5856-9390-f2cc9b07f93b-attr-3-comment" class="er entityLabel"/></g><g transform="translate(40.703125,686 )" id="entity-ingredients-dfe1a7c5-69b2-5c12-85c0-2b122290a70f"><rect height="87" width="100" y="0" x="0" class="er entityBox"/><text style="dominant-baseline: middle; text-anchor: middle; font-size: 12px;" transform="translate(50,12)" y="0" x="0" id="text-entity-ingredients-dfe1a7c5-69b2-5c12-85c0-2b122290a70f" class="er entityLabel">ingredients</text><rect height="21" width="38.09375" y="24" x="0" class="er attributeBoxOdd"/><text style="dominant-baseline: middle; font-size: 10.2px;" transform="translate(5,34.5)" y="0" x="0" id="text-entity-ingredients-dfe1a7c5-69b2-5c12-85c0-2b122290a70f-attr-1-type" class="er entityLabel">String</text><rect height="21" width="36.964569091796875" y="24" x="38.09375" class="er attributeBoxOdd"/><text style="dominant-baseline: middle; font-size: 10.2px;" transform="translate(43.09375,34.5)" y="0" x="0" id="text-entity-ingredients-dfe1a7c5-69b2-5c12-85c0-2b122290a70f-attr-1-name" class="er entityLabel">id</text><rect height="21" width="24.941680908203125" y="24" x="75.05831909179688" class="er attributeBoxOdd"/><text style="dominant-baseline: middle; font-size: 10.2px;" transform="translate(80.05831909179688,34.5)" y="0" x="0" id="text-entity-ingredients-dfe1a7c5-69b2-5c12-85c0-2b122290a70f-attr-1-comment" class="er entityLabel">PK</text><rect height="21" width="38.09375" y="45" x="0" class="er attributeBoxEven"/><text style="dominant-baseline: middle; font-size: 10.2px;" transform="translate(5,55.5)" y="0" x="0" id="text-entity-ingredients-dfe1a7c5-69b2-5c12-85c0-2b122290a70f-attr-2-type" class="er entityLabel">String</text><rect height="21" width="36.964569091796875" y="45" x="38.09375" class="er attributeBoxEven"/><text style="dominant-baseline: middle; font-size: 10.2px;" transform="translate(43.09375,55.5)" y="0" x="0" id="text-entity-ingredients-dfe1a7c5-69b2-5c12-85c0-2b122290a70f-attr-2-name" class="er entityLabel">name</text><rect height="21" width="24.941680908203125" y="45" x="75.05831909179688" class="er attributeBoxEven"/><text style="dominant-baseline: middle; font-size: 10.2px;" transform="translate(80.05831909179688,55.5)" y="0" x="0" id="text-entity-ingredients-dfe1a7c5-69b2-5c12-85c0-2b122290a70f-attr-2-comment" class="er entityLabel"/><rect height="21" width="38.09375" y="66" x="0" class="er attributeBoxOdd"/><text style="dominant-baseline: middle; font-size: 10.2px;" transform="translate(5,76.5)" y="0" x="0" id="text-entity-ingredients-dfe1a7c5-69b2-5c12-85c0-2b122290a70f-attr-3-type" class="er entityLabel">String</text><rect height="21" width="36.964569091796875" y="66" x="38.09375" class="er attributeBoxOdd"/><text style="dominant-baseline: middle; font-size: 10.2px;" transform="translate(43.09375,76.5)" y="0" x="0" id="text-entity-ingredients-dfe1a7c5-69b2-5c12-85c0-2b122290a70f-attr-3-name" class="er entityLabel">emoji</text><rect height="21" width="24.941680908203125" y="66" x="75.05831909179688" class="er attributeBoxOdd"/><text style="dominant-baseline: middle; font-size: 10.2px;" transform="translate(80.05831909179688,76.5)" y="0" x="0" id="text-entity-ingredients-dfe1a7c5-69b2-5c12-85c0-2b122290a70f-attr-3-comment" class="er entityLabel"/></g><g transform="translate(126.66575622558594,207 )" id="entity-products-ce7ac559-5ef1-5445-aa6b-0190aa04e35c"><rect height="150" width="158.1033935546875" y="0" x="0" class="er entityBox"/><text style="dominant-baseline: middle; text-anchor: middle; font-size: 12px;" transform="translate(79.05169677734375,12)" y="0" x="0" id="text-entity-products-ce7ac559-5ef1-5445-aa6b-0190aa04e35c" class="er entityLabel">products</text><rect height="21" width="36.947052001953125" y="24" x="0" class="er attributeBoxOdd"/><text style="dominant-baseline: middle; font-size: 10.2px;" transform="translate(5,34.5)" y="0" x="0" id="text-entity-products-ce7ac559-5ef1-5445-aa6b-0190aa04e35c-attr-1-type" class="er entityLabel">String</text><rect height="21" width="75.703125" y="24" x="36.947052001953125" class="er attributeBoxOdd"/><text style="dominant-baseline: middle; font-size: 10.2px;" transform="translate(41.947052001953125,34.5)" y="0" x="0" id="text-entity-products-ce7ac559-5ef1-5445-aa6b-0190aa04e35c-attr-1-name" class="er entityLabel">id</text><rect height="21" width="45.453216552734375" y="24" x="112.65017700195312" class="er attributeBoxOdd"/><text style="dominant-baseline: middle; font-size: 10.2px;" transform="translate(117.65017700195312,34.5)" y="0" x="0" id="text-entity-products-ce7ac559-5ef1-5445-aa6b-0190aa04e35c-attr-1-comment" class="er entityLabel">PK</text><rect height="21" width="36.947052001953125" y="45" x="0" class="er attributeBoxEven"/><text style="dominant-baseline: middle; font-size: 10.2px;" transform="translate(5,55.5)" y="0" x="0" id="text-entity-products-ce7ac559-5ef1-5445-aa6b-0190aa04e35c-attr-2-type" class="er entityLabel">String</text><rect height="21" width="75.703125" y="45" x="36.947052001953125" class="er attributeBoxEven"/><text style="dominant-baseline: middle; font-size: 10.2px;" transform="translate(41.947052001953125,55.5)" y="0" x="0" id="text-entity-products-ce7ac559-5ef1-5445-aa6b-0190aa04e35c-attr-2-name" class="er entityLabel">name</text><rect height="21" width="45.453216552734375" y="45" x="112.65017700195312" class="er attributeBoxEven"/><text style="dominant-baseline: middle; font-size: 10.2px;" transform="translate(117.65017700195312,55.5)" y="0" x="0" id="text-entity-products-ce7ac559-5ef1-5445-aa6b-0190aa04e35c-attr-2-comment" class="er entityLabel"/><rect height="21" width="36.947052001953125" y="66" x="0" class="er attributeBoxOdd"/><text style="dominant-baseline: middle; font-size: 10.2px;" transform="translate(5,76.5)" y="0" x="0" id="text-entity-products-ce7ac559-5ef1-5445-aa6b-0190aa04e35c-attr-3-type" class="er entityLabel">String</text><rect height="21" width="75.703125" y="66" x="36.947052001953125" class="er attributeBoxOdd"/><text style="dominant-baseline: middle; font-size: 10.2px;" transform="translate(41.947052001953125,76.5)" y="0" x="0" id="text-entity-products-ce7ac559-5ef1-5445-aa6b-0190aa04e35c-attr-3-name" class="er entityLabel">description</text><rect height="21" width="45.453216552734375" y="66" x="112.65017700195312" class="er attributeBoxOdd"/><text style="dominant-baseline: middle; font-size: 10.2px;" transform="translate(117.65017700195312,76.5)" y="0" x="0" id="text-entity-products-ce7ac559-5ef1-5445-aa6b-0190aa04e35c-attr-3-comment" class="er entityLabel"/><rect height="21" width="36.947052001953125" y="87" x="0" class="er attributeBoxEven"/><text style="dominant-baseline: middle; font-size: 10.2px;" transform="translate(5,97.5)" y="0" x="0" id="text-entity-products-ce7ac559-5ef1-5445-aa6b-0190aa04e35c-attr-4-type" class="er entityLabel">String</text><rect height="21" width="75.703125" y="87" x="36.947052001953125" class="er attributeBoxEven"/><text style="dominant-baseline: middle; font-size: 10.2px;" transform="translate(41.947052001953125,97.5)" y="0" x="0" id="text-entity-products-ce7ac559-5ef1-5445-aa6b-0190aa04e35c-attr-4-name" class="er entityLabel">image_path</text><rect height="21" width="45.453216552734375" y="87" x="112.65017700195312" class="er attributeBoxEven"/><text style="dominant-baseline: middle; font-size: 10.2px;" transform="translate(117.65017700195312,97.5)" y="0" x="0" id="text-entity-products-ce7ac559-5ef1-5445-aa6b-0190aa04e35c-attr-4-comment" class="er entityLabel"/><rect height="21" width="36.947052001953125" y="108" x="0" class="er attributeBoxOdd"/><text style="dominant-baseline: middle; font-size: 10.2px;" transform="translate(5,118.5)" y="0" x="0" id="text-entity-products-ce7ac559-5ef1-5445-aa6b-0190aa04e35c-attr-5-type" class="er entityLabel">Int</text><rect height="21" width="75.703125" y="108" x="36.947052001953125" class="er attributeBoxOdd"/><text style="dominant-baseline: middle; font-size: 10.2px;" transform="translate(41.947052001953125,118.5)" y="0" x="0" id="text-entity-products-ce7ac559-5ef1-5445-aa6b-0190aa04e35c-attr-5-name" class="er entityLabel">price_in_cents</text><rect height="21" width="45.453216552734375" y="108" x="112.65017700195312" class="er attributeBoxOdd"/><text style="dominant-baseline: middle; font-size: 10.2px;" transform="translate(117.65017700195312,118.5)" y="0" x="0" id="text-entity-products-ce7ac559-5ef1-5445-aa6b-0190aa04e35c-attr-5-comment" class="er entityLabel"/><rect height="21" width="36.947052001953125" y="129" x="0" class="er attributeBoxEven"/><text style="dominant-baseline: middle; font-size: 10.2px;" transform="translate(5,139.5)" y="0" x="0" id="text-entity-products-ce7ac559-5ef1-5445-aa6b-0190aa04e35c-attr-6-type" class="er entityLabel">String</text><rect height="21" width="75.703125" y="129" x="36.947052001953125" class="er attributeBoxEven"/><text style="dominant-baseline: middle; font-size: 10.2px;" transform="translate(41.947052001953125,139.5)" y="0" x="0" id="text-entity-products-ce7ac559-5ef1-5445-aa6b-0190aa04e35c-attr-6-name" class="er entityLabel">category_id</text><rect height="21" width="45.453216552734375" y="129" x="112.65017700195312" class="er attributeBoxEven"/><text style="dominant-baseline: middle; font-size: 10.2px;" transform="translate(117.65017700195312,139.5)" y="0" x="0" id="text-entity-products-ce7ac559-5ef1-5445-aa6b-0190aa04e35c-attr-6-comment" class="er entityLabel">nullable</text></g><g transform="translate(20,467.5 )" id="entity-productsingredients-4037abcb-b5a1-5aa8-ba46-70963f89d6a8"><rect height="87" width="141.40625" y="0" x="0" class="er entityBox"/><text style="dominant-baseline: middle; text-anchor: middle; font-size: 12px;" transform="translate(70.703125,12)" y="0" x="0" id="text-entity-productsingredients-4037abcb-b5a1-5aa8-ba46-70963f89d6a8" class="er entityLabel">products_ingredients</text><rect height="21" width="40.943939208984375" y="24" x="0" class="er attributeBoxOdd"/><text style="dominant-baseline: middle; font-size: 10.2px;" transform="translate(5,34.5)" y="0" x="0" id="text-entity-productsingredients-4037abcb-b5a1-5aa8-ba46-70963f89d6a8-attr-1-type" class="er entityLabel">String</text><rect height="21" width="72.67044067382812" y="24" x="40.943939208984375" class="er attributeBoxOdd"/><text style="dominant-baseline: middle; font-size: 10.2px;" transform="translate(45.943939208984375,34.5)" y="0" x="0" id="text-entity-productsingredients-4037abcb-b5a1-5aa8-ba46-70963f89d6a8-attr-1-name" class="er entityLabel">id</text><rect height="21" width="27.7918701171875" y="24" x="113.6143798828125" class="er attributeBoxOdd"/><text style="dominant-baseline: middle; font-size: 10.2px;" transform="translate(118.6143798828125,34.5)" y="0" x="0" id="text-entity-productsingredients-4037abcb-b5a1-5aa8-ba46-70963f89d6a8-attr-1-comment" class="er entityLabel">PK</text><rect height="21" width="40.943939208984375" y="45" x="0" class="er attributeBoxEven"/><text style="dominant-baseline: middle; font-size: 10.2px;" transform="translate(5,55.5)" y="0" x="0" id="text-entity-productsingredients-4037abcb-b5a1-5aa8-ba46-70963f89d6a8-attr-2-type" class="er entityLabel">String</text><rect height="21" width="72.67044067382812" y="45" x="40.943939208984375" class="er attributeBoxEven"/><text style="dominant-baseline: middle; font-size: 10.2px;" transform="translate(45.943939208984375,55.5)" y="0" x="0" id="text-entity-productsingredients-4037abcb-b5a1-5aa8-ba46-70963f89d6a8-attr-2-name" class="er entityLabel">product_id</text><rect height="21" width="27.7918701171875" y="45" x="113.6143798828125" class="er attributeBoxEven"/><text style="dominant-baseline: middle; font-size: 10.2px;" transform="translate(118.6143798828125,55.5)" y="0" x="0" id="text-entity-productsingredients-4037abcb-b5a1-5aa8-ba46-70963f89d6a8-attr-2-comment" class="er entityLabel"/><rect height="21" width="40.943939208984375" y="66" x="0" class="er attributeBoxOdd"/><text style="dominant-baseline: middle; font-size: 10.2px;" transform="translate(5,76.5)" y="0" x="0" id="text-entity-productsingredients-4037abcb-b5a1-5aa8-ba46-70963f89d6a8-attr-3-type" class="er entityLabel">String</text><rect height="21" width="72.67044067382812" y="66" x="40.943939208984375" class="er attributeBoxOdd"/><text style="dominant-baseline: middle; font-size: 10.2px;" transform="translate(45.943939208984375,76.5)" y="0" x="0" id="text-entity-productsingredients-4037abcb-b5a1-5aa8-ba46-70963f89d6a8-attr-3-name" class="er entityLabel">ingredient_id</text><rect height="21" width="27.7918701171875" y="66" x="113.6143798828125" class="er attributeBoxOdd"/><text style="dominant-baseline: middle; font-size: 10.2px;" transform="translate(118.6143798828125,76.5)" y="0" x="0" id="text-entity-productsingredients-4037abcb-b5a1-5aa8-ba46-70963f89d6a8-attr-3-comment" class="er entityLabel"/></g><g transform="translate(248.05543518066406,665 )" id="entity-orders-b199f09d-589f-57c9-bdcc-48b896df9a97"><rect height="129" width="145.35269165039062" y="0" x="0" class="er entityBox"/><text style="dominant-baseline: middle; text-anchor: middle; font-size: 12px;" transform="translate(72.67634582519531,12)" y="0" x="0" id="text-entity-orders-b199f09d-589f-57c9-bdcc-48b896df9a97" class="er entityLabel">orders</text><rect height="21" width="64.9375" y="24" x="0" class="er attributeBoxOdd"/><text style="dominant-baseline: middle; font-size: 10.2px;" transform="translate(5,34.5)" y="0" x="0" id="text-entity-orders-b199f09d-589f-57c9-bdcc-48b896df9a97-attr-1-type" class="er entityLabel">String</text><rect height="21" width="56.620208740234375" y="24" x="64.9375" class="er attributeBoxOdd"/><text style="dominant-baseline: middle; font-size: 10.2px;" transform="translate(69.9375,34.5)" y="0" x="0" id="text-entity-orders-b199f09d-589f-57c9-bdcc-48b896df9a97-attr-1-name" class="er entityLabel">id</text><rect height="21" width="23.79498291015625" y="24" x="121.55770874023438" class="er attributeBoxOdd"/><text style="dominant-baseline: middle; font-size: 10.2px;" transform="translate(126.55770874023438,34.5)" y="0" x="0" id="text-entity-orders-b199f09d-589f-57c9-bdcc-48b896df9a97-attr-1-comment" class="er entityLabel">PK</text><rect height="21" width="64.9375" y="45" x="0" class="er attributeBoxEven"/><text style="dominant-baseline: middle; font-size: 10.2px;" transform="translate(5,55.5)" y="0" x="0" id="text-entity-orders-b199f09d-589f-57c9-bdcc-48b896df9a97-attr-2-type" class="er entityLabel">Int</text><rect height="21" width="56.620208740234375" y="45" x="64.9375" class="er attributeBoxEven"/><text style="dominant-baseline: middle; font-size: 10.2px;" transform="translate(69.9375,55.5)" y="0" x="0" id="text-entity-orders-b199f09d-589f-57c9-bdcc-48b896df9a97-attr-2-name" class="er entityLabel">table</text><rect height="21" width="23.79498291015625" y="45" x="121.55770874023438" class="er attributeBoxEven"/><text style="dominant-baseline: middle; font-size: 10.2px;" transform="translate(126.55770874023438,55.5)" y="0" x="0" id="text-entity-orders-b199f09d-589f-57c9-bdcc-48b896df9a97-attr-2-comment" class="er entityLabel"/><rect height="21" width="64.9375" y="66" x="0" class="er attributeBoxOdd"/><text style="dominant-baseline: middle; font-size: 10.2px;" transform="translate(5,76.5)" y="0" x="0" id="text-entity-orders-b199f09d-589f-57c9-bdcc-48b896df9a97-attr-3-type" class="er entityLabel">OrderStatus</text><rect height="21" width="56.620208740234375" y="66" x="64.9375" class="er attributeBoxOdd"/><text style="dominant-baseline: middle; font-size: 10.2px;" transform="translate(69.9375,76.5)" y="0" x="0" id="text-entity-orders-b199f09d-589f-57c9-bdcc-48b896df9a97-attr-3-name" class="er entityLabel">status</text><rect height="21" width="23.79498291015625" y="66" x="121.55770874023438" class="er attributeBoxOdd"/><text style="dominant-baseline: middle; font-size: 10.2px;" transform="translate(126.55770874023438,76.5)" y="0" x="0" id="text-entity-orders-b199f09d-589f-57c9-bdcc-48b896df9a97-attr-3-comment" class="er entityLabel"/><rect height="21" width="64.9375" y="87" x="0" class="er attributeBoxEven"/><text style="dominant-baseline: middle; font-size: 10.2px;" transform="translate(5,97.5)" y="0" x="0" id="text-entity-orders-b199f09d-589f-57c9-bdcc-48b896df9a97-attr-4-type" class="er entityLabel">DateTime</text><rect height="21" width="56.620208740234375" y="87" x="64.9375" class="er attributeBoxEven"/><text style="dominant-baseline: middle; font-size: 10.2px;" transform="translate(69.9375,97.5)" y="0" x="0" id="text-entity-orders-b199f09d-589f-57c9-bdcc-48b896df9a97-attr-4-name" class="er entityLabel">createdAt</text><rect height="21" width="23.79498291015625" y="87" x="121.55770874023438" class="er attributeBoxEven"/><text style="dominant-baseline: middle; font-size: 10.2px;" transform="translate(126.55770874023438,97.5)" y="0" x="0" id="text-entity-orders-b199f09d-589f-57c9-bdcc-48b896df9a97-attr-4-comment" class="er entityLabel"/><rect height="21" width="64.9375" y="108" x="0" class="er attributeBoxOdd"/><text style="dominant-baseline: middle; font-size: 10.2px;" transform="translate(5,118.5)" y="0" x="0" id="text-entity-orders-b199f09d-589f-57c9-bdcc-48b896df9a97-attr-5-type" class="er entityLabel">DateTime</text><rect height="21" width="56.620208740234375" y="108" x="64.9375" class="er attributeBoxOdd"/><text style="dominant-baseline: middle; font-size: 10.2px;" transform="translate(69.9375,118.5)" y="0" x="0" id="text-entity-orders-b199f09d-589f-57c9-bdcc-48b896df9a97-attr-5-name" class="er entityLabel">updatedAt</text><rect height="21" width="23.79498291015625" y="108" x="121.55770874023438" class="er attributeBoxOdd"/><text style="dominant-baseline: middle; font-size: 10.2px;" transform="translate(126.55770874023438,118.5)" y="0" x="0" id="text-entity-orders-b199f09d-589f-57c9-bdcc-48b896df9a97-attr-5-comment" class="er entityLabel"/></g><g transform="translate(261.40625,457 )" id="entity-OrderProducts-a30f4460-61ad-5f42-a1d4-b7484e5f26c9"><rect height="108" width="118.65106201171875" y="0" x="0" class="er entityBox"/><text style="dominant-baseline: middle; text-anchor: middle; font-size: 12px;" transform="translate(59.325531005859375,12)" y="0" x="0" id="text-entity-OrderProducts-a30f4460-61ad-5f42-a1d4-b7484e5f26c9" class="er entityLabel">OrderProducts</text><rect height="21" width="36.947052001953125" y="24" x="0" class="er attributeBoxOdd"/><text style="dominant-baseline: middle; font-size: 10.2px;" transform="translate(5,34.5)" y="0" x="0" id="text-entity-OrderProducts-a30f4460-61ad-5f42-a1d4-b7484e5f26c9-attr-1-type" class="er entityLabel">String</text><rect height="21" width="57.909027099609375" y="24" x="36.947052001953125" class="er attributeBoxOdd"/><text style="dominant-baseline: middle; font-size: 10.2px;" transform="translate(41.947052001953125,34.5)" y="0" x="0" id="text-entity-OrderProducts-a30f4460-61ad-5f42-a1d4-b7484e5f26c9-attr-1-name" class="er entityLabel">id</text><rect height="21" width="23.79498291015625" y="24" x="94.8560791015625" class="er attributeBoxOdd"/><text style="dominant-baseline: middle; font-size: 10.2px;" transform="translate(99.8560791015625,34.5)" y="0" x="0" id="text-entity-OrderProducts-a30f4460-61ad-5f42-a1d4-b7484e5f26c9-attr-1-comment" class="er entityLabel">PK</text><rect height="21" width="36.947052001953125" y="45" x="0" class="er attributeBoxEven"/><text style="dominant-baseline: middle; font-size: 10.2px;" transform="translate(5,55.5)" y="0" x="0" id="text-entity-OrderProducts-a30f4460-61ad-5f42-a1d4-b7484e5f26c9-attr-2-type" class="er entityLabel">String</text><rect height="21" width="57.909027099609375" y="45" x="36.947052001953125" class="er attributeBoxEven"/><text style="dominant-baseline: middle; font-size: 10.2px;" transform="translate(41.947052001953125,55.5)" y="0" x="0" id="text-entity-OrderProducts-a30f4460-61ad-5f42-a1d4-b7484e5f26c9-attr-2-name" class="er entityLabel">order_id</text><rect height="21" width="23.79498291015625" y="45" x="94.8560791015625" class="er attributeBoxEven"/><text style="dominant-baseline: middle; font-size: 10.2px;" transform="translate(99.8560791015625,55.5)" y="0" x="0" id="text-entity-OrderProducts-a30f4460-61ad-5f42-a1d4-b7484e5f26c9-attr-2-comment" class="er entityLabel"/><rect height="21" width="36.947052001953125" y="66" x="0" class="er attributeBoxOdd"/><text style="dominant-baseline: middle; font-size: 10.2px;" transform="translate(5,76.5)" y="0" x="0" id="text-entity-OrderProducts-a30f4460-61ad-5f42-a1d4-b7484e5f26c9-attr-3-type" class="er entityLabel">String</text><rect height="21" width="57.909027099609375" y="66" x="36.947052001953125" class="er attributeBoxOdd"/><text style="dominant-baseline: middle; font-size: 10.2px;" transform="translate(41.947052001953125,76.5)" y="0" x="0" id="text-entity-OrderProducts-a30f4460-61ad-5f42-a1d4-b7484e5f26c9-attr-3-name" class="er entityLabel">product_id</text><rect height="21" width="23.79498291015625" y="66" x="94.8560791015625" class="er attributeBoxOdd"/><text style="dominant-baseline: middle; font-size: 10.2px;" transform="translate(99.8560791015625,76.5)" y="0" x="0" id="text-entity-OrderProducts-a30f4460-61ad-5f42-a1d4-b7484e5f26c9-attr-3-comment" class="er entityLabel"/><rect height="21" width="36.947052001953125" y="87" x="0" class="er attributeBoxEven"/><text style="dominant-baseline: middle; font-size: 10.2px;" transform="translate(5,97.5)" y="0" x="0" id="text-entity-OrderProducts-a30f4460-61ad-5f42-a1d4-b7484e5f26c9-attr-4-type" class="er entityLabel">Int</text><rect height="21" width="57.909027099609375" y="87" x="36.947052001953125" class="er attributeBoxEven"/><text style="dominant-baseline: middle; font-size: 10.2px;" transform="translate(41.947052001953125,97.5)" y="0" x="0" id="text-entity-OrderProducts-a30f4460-61ad-5f42-a1d4-b7484e5f26c9-attr-4-name" class="er entityLabel">quantity</text><rect height="21" width="23.79498291015625" y="87" x="94.8560791015625" class="er attributeBoxEven"/><text style="dominant-baseline: middle; font-size: 10.2px;" transform="translate(99.8560791015625,97.5)" y="0" x="0" id="text-entity-OrderProducts-a30f4460-61ad-5f42-a1d4-b7484e5f26c9-attr-4-comment" class="er entityLabel"/></g><rect height="14" width="46.03125" y="149.02586364746094" x="140.56590270996094" class="er relationshipLabelBox"/><text style="text-anchor: middle; dominant-baseline: middle; font-size: 12px;" y="156.02586364746094" x="163.58152770996094" id="rel1" class="er relationshipLabel">products</text><rect height="14" width="46.03125" y="613.3302612304688" x="119.49964904785156" class="er relationshipLabelBox"/><text style="text-anchor: middle; dominant-baseline: middle; font-size: 12px;" y="620.3302612304688" x="142.51527404785156" id="rel2" class="er relationshipLabel">products</text><rect height="14" width="58.71875" y="386.8580627441406" x="38.09607696533203" class="er relationshipLabelBox"/><text style="text-anchor: middle; dominant-baseline: middle; font-size: 12px;" y="393.8580627441406" x="67.45545196533203" id="rel3" class="er relationshipLabel">ingredients</text><rect height="14" width="75.375" y="399.7377014160156" x="232.5848388671875" class="er relationshipLabelBox"/><text style="text-anchor: middle; dominant-baseline: middle; font-size: 12px;" y="406.7377014160156" x="270.2723388671875" id="rel4" class="er relationshipLabel">orderProducts</text><rect height="14" width="46.03125" y="149.02586364746094" x="224.83775329589844" class="er relationshipLabelBox"/><text style="text-anchor: middle; dominant-baseline: middle; font-size: 12px;" y="156.02586364746094" x="247.85337829589844" id="rel5" class="er relationshipLabel">category</text><rect height="14" width="53.37109375" y="613.2922973632812" x="24.16860580444336" class="er relationshipLabelBox"/><text style="text-anchor: middle; dominant-baseline: middle; font-size: 12px;" y="620.2922973632812" x="50.85415267944336" id="rel6" class="er relationshipLabel">ingredient</text><rect height="14" width="40.69140625" y="404.9644775390625" x="118.24505615234375" class="er relationshipLabelBox"/><text style="text-anchor: middle; dominant-baseline: middle; font-size: 12px;" y="411.9644775390625" x="138.59075927734375" id="rel7" class="er relationshipLabel">product</text><rect height="14" width="65.375" y="837" x="288.0442810058594" class="er relationshipLabelBox"/><text style="text-anchor: middle; dominant-baseline: middle; font-size: 12px;" y="844" x="320.7317810058594" id="rel8" class="er relationshipLabel">enum:status</text><rect height="14" width="46.03125" y="607.6851806640625" x="340.06268310546875" class="er relationshipLabelBox"/><text style="text-anchor: middle; dominant-baseline: middle; font-size: 12px;" y="614.6851806640625" x="363.07830810546875" id="rel9" class="er relationshipLabel">products</text><rect height="14" width="28.017578125" y="607.4891967773438" x="251.66799926757812" class="er relationshipLabelBox"/><text style="text-anchor: middle; dominant-baseline: middle; font-size: 12px;" y="614.4891967773438" x="265.6767883300781" id="rel10" class="er relationshipLabel">order</text><rect height="14" width="40.69140625" y="382.4647521972656" x="321.060791015625" class="er relationshipLabelBox"/><text style="text-anchor: middle; dominant-baseline: middle; font-size: 12px;" y="389.4647521972656" x="341.406494140625" id="rel11" class="er relationshipLabel">product</text></svg>